<svg width="520" height="516" viewBox="0 0 520 516" fill="none" xmlns="http://www.w3.org/2000/svg">
<mask id="mask0_1212_199" style="mask-type:luminance" maskUnits="userSpaceOnUse" x="0" y="0" width="520" height="516">
<path d="M0 0H520V515.207H0V0Z" fill="white"/>
</mask>
<g mask="url(#mask0_1212_199)">
<path d="M282.923 204.332C282.923 204.332 309.432 210.324 312.192 229.592C315.188 250.504 309.216 292.608 309.961 299.61C310.704 306.612 310.803 312.341 310.803 312.341L364.637 340.884L353.674 355.287C353.674 355.287 305.869 353.414 293.223 344.201C280.576 334.988 277.973 323.564 278.345 313.245C278.717 302.926 278.311 246.543 278.311 246.543L282.923 204.332Z" fill="#C17560"/>
<path d="M301.243 242.253C301.373 242.345 299.339 245.247 297.154 249.015C294.955 252.777 293.44 255.974 293.294 255.91C293.229 255.881 293.524 255.043 294.11 253.731C294.694 252.421 295.581 250.643 296.685 248.747C297.788 246.852 298.897 245.201 299.749 244.044C300.602 242.884 301.185 242.211 301.243 242.253Z" fill="#7C4236"/>
<path d="M443.075 337.64C443.075 349.659 435.915 359.401 427.083 359.401C423.452 359.401 413.934 359.362 413.934 359.362C410.088 355.388 411.091 344.718 411.091 337.64C411.091 331.092 409.067 319.995 412.43 316.006C412.43 316.006 423.062 315.878 427.083 315.878C435.915 315.878 443.075 325.621 443.075 337.64Z" fill="#FF735D"/>
<mask id="mask1_1212_199" style="mask-type:luminance" maskUnits="userSpaceOnUse" x="410" y="315" width="34" height="45">
<path d="M410.487 315.878H443.075V359.401H410.487V315.878Z" fill="white"/>
</mask>
<g mask="url(#mask1_1212_199)">
<g opacity="0.300003">
<path d="M443.075 337.64C443.075 349.658 435.915 359.401 427.083 359.401C423.453 359.401 413.934 359.362 413.934 359.362C410.089 355.388 411.091 344.718 411.091 337.64C411.091 331.091 409.067 319.995 412.431 316.006C412.431 316.006 423.063 315.878 427.083 315.878C435.915 315.878 443.075 325.621 443.075 337.64Z" fill="black"/>
</g>
</g>
<path d="M426.26 337.6C426.26 349.619 420.742 359.362 413.934 359.362C407.128 359.362 401.609 349.619 401.609 337.6C401.609 325.582 407.128 315.839 413.934 315.839C420.742 315.839 426.26 325.582 426.26 337.6Z" fill="#FF735D"/>
<path d="M421.191 345.128H376.444C374.494 345.128 372.912 343.561 372.912 341.629V337.333C372.912 335.401 374.494 333.834 376.444 333.834H421.191C423.141 333.834 424.722 335.401 424.722 337.333V341.629C424.722 343.561 423.141 345.128 421.191 345.128Z" fill="#FF735D"/>
<path d="M417.025 327.535C415.842 325.472 412.994 321.661 412.994 321.661C408.685 317.496 404.862 321.131 404.862 321.131C402.739 319.396 400.161 320.03 398.398 321.974C393.531 319.485 390.893 325.331 390.893 325.331C381.507 324.799 383.578 333.834 383.578 333.834C383.578 333.834 386.225 334.051 386.247 334.264C386.605 337.738 381.632 344.443 381.632 344.443L370.97 355.287L388.14 355.017C391.135 356.071 393.886 355.816 396.105 352.738C400.831 356.18 403.055 351.911 403.055 351.911C407.504 354.872 410.111 350.396 410.111 350.396C410.111 350.396 414.586 352.521 415.98 344.056C416.487 340.968 418.207 329.598 417.025 327.535Z" fill="#C17560"/>
<path d="M393.086 343.8C393.011 343.766 393.503 342.636 394.192 340.776C394.88 338.917 395.742 336.311 396.401 333.369C396.56 332.64 396.664 331.926 396.597 331.256C396.514 330.583 396.322 329.942 396.02 329.395C395.41 328.292 394.464 327.554 393.648 327.013C391.983 325.947 390.846 325.417 390.892 325.331C390.909 325.298 391.203 325.4 391.721 325.621C392.236 325.844 392.982 326.174 393.855 326.693C394.715 327.208 395.753 327.949 396.455 329.155C396.804 329.756 397.026 330.455 397.124 331.201C397.208 331.96 397.094 332.732 396.931 333.482C396.263 336.466 395.333 339.077 394.549 340.915C393.763 342.753 393.146 343.829 393.086 343.8Z" fill="#7C4236"/>
<path d="M402.322 341.613C402.238 341.583 402.679 340.401 403.12 338.434C403.339 337.389 403.585 336.217 403.851 334.946C404.138 333.638 404.516 332.206 404.549 330.705C404.576 329.218 403.981 327.844 403.223 326.793C402.459 325.726 401.555 324.917 400.807 324.235C399.273 322.901 398.342 322.034 398.398 321.974C398.445 321.927 399.449 322.679 401.056 323.947C401.843 324.6 402.796 325.393 403.627 326.504C404.452 327.602 405.119 329.075 405.091 330.711C405.054 332.314 404.649 333.758 404.337 335.058C404.017 336.355 403.762 337.539 403.492 338.524C403.224 339.511 402.94 340.291 402.722 340.817C402.503 341.345 402.355 341.625 402.322 341.613Z" fill="#7C4236"/>
<path d="M410.136 339.673C410.064 339.652 410.365 338.441 410.908 336.502C411.198 335.484 411.524 334.343 411.876 333.106C412.214 331.841 412.519 330.402 412.21 328.956C411.906 327.508 411.103 326.271 410.232 325.31C409.353 324.345 408.386 323.633 407.558 323.069C405.88 321.963 404.775 321.353 404.821 321.275C404.838 321.243 405.131 321.361 405.644 321.606C406.156 321.853 406.892 322.221 407.767 322.751C408.635 323.285 409.655 323.98 410.6 324.976C411.533 325.964 412.408 327.269 412.74 328.847C413.077 330.437 412.726 331.962 412.358 333.237C411.971 334.523 411.589 335.653 411.274 336.612C410.637 338.523 410.208 339.695 410.136 339.673Z" fill="#7C4236"/>
<path d="M310.958 312.389C311.047 312.543 307.589 314.085 304.287 317.247C300.952 320.376 299.244 323.728 299.091 323.635C299.035 323.607 299.383 322.736 300.173 321.443C300.959 320.151 302.228 318.46 303.912 316.86C305.601 315.263 307.362 314.082 308.701 313.363C310.039 312.638 310.932 312.331 310.958 312.389Z" fill="#7C4236"/>
<path d="M382.814 339.258C382.814 351.276 375.654 361.019 366.822 361.019C363.191 361.019 353.674 360.98 353.674 360.98C349.827 357.005 350.83 346.336 350.83 339.258C350.83 332.709 348.806 321.613 352.169 317.624C352.169 317.624 362.801 317.496 366.822 317.496C375.654 317.496 382.814 327.239 382.814 339.258Z" fill="#FF735D"/>
<mask id="mask2_1212_199" style="mask-type:luminance" maskUnits="userSpaceOnUse" x="350" y="317" width="33" height="45">
<path d="M350.226 317.495H382.814V361.019H350.226V317.495Z" fill="white"/>
</mask>
<g mask="url(#mask2_1212_199)">
<g opacity="0.300003">
<path d="M382.814 339.257C382.814 351.276 375.654 361.019 366.822 361.019C363.191 361.019 353.674 360.98 353.674 360.98C349.827 357.005 350.83 346.336 350.83 339.257C350.83 332.709 348.806 321.613 352.169 317.624C352.169 317.624 362.801 317.496 366.822 317.496C375.654 317.496 382.814 327.239 382.814 339.257Z" fill="black"/>
</g>
</g>
<path d="M365.999 339.218C365.999 351.237 360.481 360.979 353.674 360.979C346.866 360.979 341.348 351.237 341.348 339.218C341.348 327.199 346.866 317.457 353.674 317.457C360.481 317.457 365.999 327.199 365.999 339.218Z" fill="#FF735D"/>
<path d="M364.197 339.218C364.187 339.218 364.176 339.135 364.162 338.971C364.149 338.776 364.134 338.538 364.114 338.248C364.098 337.611 364.012 336.675 363.885 335.475C363.793 334.874 363.692 334.21 363.582 333.489C363.411 332.775 363.298 331.983 363.046 331.162C362.616 329.508 361.968 327.652 360.926 325.77C360.383 324.845 359.778 323.89 358.982 323.032C358.225 322.146 357.255 321.38 356.139 320.84C355.024 320.303 353.707 320.069 352.408 320.313C351.106 320.555 349.887 321.269 348.857 322.214C346.77 324.12 345.369 326.861 344.434 329.787C343.499 332.732 343.074 335.94 343.046 339.216C343.074 342.493 343.498 345.703 344.434 348.648C345.369 351.574 346.77 354.316 348.857 356.222C349.887 357.167 351.107 357.881 352.408 358.123C353.708 358.367 355.025 358.134 356.14 357.597C357.255 357.057 358.226 356.29 358.983 355.403C359.778 354.546 360.384 353.59 360.926 352.665C361.969 350.784 362.616 348.928 363.046 347.273C363.298 346.454 363.411 345.661 363.582 344.947C363.692 344.225 363.793 343.562 363.885 342.962C364.012 341.76 364.098 340.826 364.114 340.189C364.134 339.897 364.149 339.66 364.162 339.465C364.176 339.302 364.187 339.218 364.197 339.218C364.206 339.218 364.213 339.302 364.217 339.465C364.219 339.661 364.221 339.899 364.224 340.192C364.242 340.832 364.191 341.773 364.095 342.984C364.03 343.587 363.933 344.257 363.837 344.991C363.68 345.713 363.58 346.516 363.34 347.348C362.933 349.027 362.304 350.915 361.262 352.847C360.719 353.799 360.109 354.783 359.296 355.678C358.521 356.599 357.517 357.415 356.333 357.998C355.153 358.579 353.727 358.845 352.32 358.587C350.911 358.332 349.606 357.573 348.521 356.589C346.325 354.597 344.891 351.788 343.928 348.805C342.967 345.803 342.532 342.543 342.504 339.216C342.533 335.89 342.968 332.631 343.929 329.629C344.892 326.647 346.326 323.838 348.521 321.847C349.605 320.863 350.909 320.104 352.32 319.849C353.726 319.592 355.152 319.858 356.333 320.439C357.516 321.021 358.52 321.836 359.295 322.758C360.108 323.653 360.719 324.637 361.262 325.588C362.304 327.52 362.932 329.409 363.34 331.088C363.58 331.92 363.68 332.722 363.837 333.445C363.933 334.178 364.029 334.848 364.095 335.452C364.191 336.664 364.242 337.605 364.224 338.244C364.221 338.537 364.219 338.775 364.217 338.971C364.213 339.135 364.206 339.218 364.197 339.218Z" fill="#1A2E35"/>
<path d="M353.311 341.451L352.569 341.504L352.665 342.824L351.638 342.897L351.541 341.577L349.089 341.751L349.018 340.771L350.875 336.628L351.982 336.549L350.265 340.475L351.487 340.388L351.403 339.21L352.398 339.14L352.483 340.317L353.225 340.265L353.311 341.451Z" fill="#1A2E35"/>
<path d="M355.301 340.731L354.861 341.431L354.95 342.662L353.936 342.733L353.454 336.066L354.468 335.994L354.741 339.768L356.084 337.722L357.293 337.635L355.985 339.789L357.774 342.461L356.545 342.548L355.301 340.731Z" fill="#1A2E35"/>
<path d="M242.963 73.9194C248.016 69.9976 248.34 61.9954 244.894 56.629C241.449 51.2626 235.205 48.2353 228.943 46.8411C219.251 44.6845 208.143 46.2414 201.131 53.2132C194.12 60.185 193.253 73.1868 200.934 79.427C196.503 79.7701 191.824 80.1987 188.216 82.7717C184.609 85.3446 182.753 90.8604 185.585 94.2536C188.812 98.1197 195.011 96.6699 199.742 94.8832C196.632 96.8327 196.146 101.54 198.183 104.577C200.222 107.614 204.103 109.045 207.784 109.002C211.464 108.96 215.003 107.653 218.378 106.199" fill="#1A2E35"/>
<path d="M227.493 75.4156C229.321 73.2466 231.193 71.0467 233.6 69.5309C236.007 68.0162 239.075 67.2661 241.752 68.2388C243.012 68.6963 244.214 69.6463 244.444 70.956C244.675 72.2656 243.465 73.767 242.163 73.4434L241.842 73.6361C238.474 75.7309 235.064 77.7588 231.615 79.7197C230.747 80.2132 229.848 80.713 228.855 80.8449C227.863 80.9768 226.743 80.6573 226.208 79.8175C225.327 78.4296 226.433 76.6748 227.493 75.4156Z" fill="#FF735D"/>
<path d="M220.356 84.0536C232.111 73.8102 246.383 69.1414 261.87 71.4155C270.606 72.6994 273.913 75.0838 279.908 77.7876C285.903 80.4914 291.009 84.7543 293.874 90.6307C297.278 97.6107 299.844 105.223 299.418 112.964C298.978 120.915 298.533 128.918 296.632 136.655C294.731 144.392 291.268 151.93 285.551 157.527L264.855 157.697C253.681 156.254 234.573 167.185 224.167 162.902C213.761 158.62 207.003 139.406 205.594 127.87C203.715 112.471 208.601 94.2969 220.356 84.0536Z" fill="#1A2E35"/>
<path d="M259.033 193.094C260.065 186.077 261.289 177.269 261.285 177.302C261.285 177.302 277.988 178.196 285.994 158.106C289.975 148.115 293.258 131.019 295.486 116.945C297.492 104.276 289.491 85.2693 273.735 82.6335L266.862 80.6798L238.28 86.853C234.374 86.4131 230.776 89.0076 230.001 92.8274L213.712 187.078L226.157 215.522L256.968 203.697L259.033 193.094Z" fill="#C17560"/>
<path d="M255.269 148.069C255.598 146.995 256.375 146.124 257.273 145.586C259.067 144.509 261.384 144.756 262.873 146.181C264.364 147.606 264.934 150.121 264.251 152.26C263.094 153.392 261.505 154.023 259.883 153.899C259.631 153.879 259.38 153.847 259.13 153.8C257.924 153.571 256.758 152.963 255.98 151.926C255.202 150.89 254.863 149.394 255.269 148.069Z" fill="#7C4236"/>
<path d="M286.323 132.567C286.056 133.989 284.622 134.938 283.119 134.69C281.619 134.442 280.614 133.092 280.88 131.67C281.146 130.249 282.581 129.298 284.08 129.546C285.584 129.793 286.589 131.146 286.323 132.567Z" fill="#1A2E35"/>
<path d="M289.509 123.185C289.097 123.46 287.39 121.514 284.488 120.882C281.598 120.211 279.137 121.221 278.902 120.799C278.781 120.61 279.264 120.057 280.339 119.592C281.401 119.127 283.103 118.822 284.908 119.226C286.712 119.634 288.085 120.628 288.808 121.494C289.547 122.369 289.709 123.065 289.509 123.185Z" fill="#1A2E35"/>
<path d="M266.905 142.852C266.928 142.686 268.8 142.773 271.804 143.046C272.562 143.133 273.297 143.141 273.534 142.668C273.827 142.177 273.695 141.317 273.526 140.385C273.228 138.456 272.917 136.433 272.588 134.315C271.331 125.689 270.595 118.662 270.945 118.615C271.297 118.568 272.602 125.521 273.86 134.147C274.152 136.269 274.433 138.294 274.698 140.229C274.792 141.126 275.061 142.178 274.436 143.195C274.114 143.7 273.482 143.977 272.978 143.999C272.471 144.039 272.053 143.955 271.681 143.896C268.706 143.406 266.879 143.017 266.905 142.852Z" fill="#1A2E35"/>
<path d="M261.284 177.301C261.284 177.301 246.942 175.093 234.803 163.668C234.803 163.668 239.066 179.752 260.54 182.432L261.284 177.301Z" fill="#7C4236"/>
<path d="M257.923 142.961C258.4 143.038 257.707 146.159 259.906 148.966C262.097 151.78 265.532 152.167 265.46 152.609C265.46 152.814 264.577 153.05 263.152 152.777C261.751 152.518 259.821 151.629 258.476 149.912C257.135 148.193 256.835 146.226 257.015 144.922C257.187 143.592 257.712 142.895 257.923 142.961Z" fill="#1A2E35"/>
<path d="M290.205 117.339C289.561 117.933 287.444 116.975 284.801 116.617C282.17 116.176 279.856 116.464 279.428 115.706C279.243 115.342 279.679 114.72 280.737 114.212C281.781 113.705 283.459 113.391 285.273 113.664C287.084 113.94 288.586 114.735 289.421 115.527C290.272 116.325 290.493 117.045 290.205 117.339Z" fill="#1A2E35"/>
<path d="M253.406 126.238C253.093 127.651 254.04 129.077 255.523 129.428C257.002 129.779 258.458 128.922 258.771 127.51C259.084 126.099 258.136 124.67 256.658 124.319C255.175 123.968 253.719 124.826 253.406 126.238Z" fill="#1A2E35"/>
<path d="M250.081 115.579C250.353 115.991 252.689 114.856 255.611 115.393C258.537 115.889 260.406 117.768 260.789 117.47C260.974 117.343 260.747 116.646 259.939 115.803C259.144 114.965 257.696 114.029 255.874 113.705C254.051 113.386 252.397 113.772 251.392 114.292C250.366 114.812 249.944 115.391 250.081 115.579Z" fill="#1A2E35"/>
<path d="M253.391 106.574C253.845 107.336 256.227 107.064 258.943 107.523C261.674 107.898 263.87 108.873 264.525 108.282C264.818 107.989 264.578 107.265 263.69 106.46C262.816 105.66 261.256 104.853 259.384 104.565C257.511 104.279 255.787 104.581 254.72 105.085C253.636 105.587 253.196 106.207 253.391 106.574Z" fill="#1A2E35"/>
<path d="M227.755 128.738C228.099 127.187 227.109 123.132 225.617 122.553C221.632 121.007 214.118 119.699 211.72 130.07C208.443 144.247 223.486 144.583 223.605 144.182C223.698 143.869 226.567 134.097 227.755 128.738Z" fill="#C17560"/>
<path d="M220.855 138.107C220.803 138.047 220.565 138.224 220.101 138.32C219.646 138.412 218.909 138.381 218.228 137.934C216.842 137.042 216.119 134.375 216.642 131.804C216.903 130.505 217.459 129.338 218.156 128.425C218.833 127.487 219.677 126.916 220.47 126.956C221.266 126.954 221.701 127.528 221.784 127.966C221.885 128.406 221.728 128.669 221.799 128.71C221.83 128.754 222.16 128.542 222.181 127.931C222.187 127.635 222.096 127.263 221.822 126.914C221.543 126.559 221.071 126.304 220.527 126.24C219.406 126.066 218.181 126.846 217.415 127.847C216.589 128.841 215.932 130.145 215.638 131.603C215.069 134.481 215.927 137.489 217.859 138.551C218.805 139.04 219.715 138.93 220.225 138.694C220.75 138.444 220.898 138.144 220.855 138.107Z" fill="#7C4236"/>
<path d="M225.02 122.497L228.064 126.874C246.434 114.427 283.712 81.8383 281.608 83.7992C281.608 83.7992 271.479 77.5919 259.354 77.6527C247.228 77.7125 223.882 79.9001 221.927 93.7375C219.972 107.576 225.02 122.497 225.02 122.497Z" fill="#1A2E35"/>
<path d="M204.542 115.896C204.519 115.885 204.643 115.613 204.902 115.104C205.164 114.597 205.603 113.873 206.264 113.007C207.584 111.286 209.932 109.048 213.429 107.261C216.889 105.403 221.463 104.173 226.56 103.454C231.655 102.684 237.308 102.366 243.038 100.966C248.791 99.6561 254.063 97.6169 258.644 95.3768C263.215 93.1057 267.094 90.608 270.18 88.2958C273.268 85.9804 275.582 83.8753 277.152 82.3956C277.878 81.6867 278.468 81.1117 278.932 80.6583C279.343 80.2637 279.567 80.0638 279.586 80.0813C279.606 80.0988 279.419 80.3317 279.042 80.7603C278.661 81.1828 278.117 81.8248 277.359 82.5996C275.846 84.1494 273.573 86.3256 270.504 88.7121C267.436 91.0954 263.553 93.6622 258.953 95.9899C254.347 98.2846 249.025 100.366 243.21 101.689C237.406 103.106 231.716 103.405 226.658 104.132C221.589 104.811 217.098 105.966 213.67 107.728C210.21 109.423 207.86 111.55 206.492 113.187C205.126 114.844 204.612 115.937 204.542 115.896Z" fill="#375A64"/>
<path d="M208.373 118.84C208.373 118.84 208.423 117.643 209.456 115.801C210.454 113.969 212.605 111.611 216.013 109.947C219.404 108.207 223.943 107.532 228.857 107.237C233.787 106.975 239.169 106.49 244.634 104.977C250.088 103.481 255.105 101.409 259.362 98.9902C263.637 96.5976 267.201 93.9711 270.011 91.5671C272.849 89.1837 274.858 86.9508 276.28 85.4464C276.914 84.7138 277.429 84.1162 277.839 83.6411C278.203 83.2331 278.404 83.026 278.425 83.0414C278.446 83.0569 278.284 83.2949 277.959 83.7339C277.576 84.2336 277.094 84.8622 276.503 85.635C275.141 87.2033 273.179 89.5073 270.363 91.9617C267.573 94.4368 264.006 97.1355 259.704 99.5858C255.419 102.063 250.351 104.181 244.831 105.695C239.31 107.226 233.812 107.698 228.902 107.92C224.002 108.178 219.565 108.792 216.245 110.42C212.901 111.98 210.758 114.207 209.709 115.948C208.624 117.695 208.469 118.873 208.373 118.84Z" fill="#375A64"/>
<path d="M168.406 249.284C168.987 250.397 168.987 264.124 171.608 279.526C174.23 294.927 187.562 326.366 187.562 326.366L184.807 347.707L300.623 360.813L286.685 323.868L288.214 289.073C288.214 289.073 297.077 279.341 293.332 253.366C289.587 227.39 284.166 205.088 284.166 205.088L274.853 201.151L262.958 196.781L218.516 182.994L194.184 180.14L170.86 227.762L168.406 249.284Z" fill="#C17560"/>
<path d="M175.795 296.066C175.795 296.066 184.321 290.09 204.81 289.649C225.299 289.207 285.661 299.269 285.661 299.269L287.816 291.403C287.816 291.403 302.429 269.357 291.783 243.931C280.434 216.823 284.315 204.477 284.315 204.477L274.854 201.151C274.854 201.151 265.371 219.661 257.289 224.145C248.172 229.206 231.397 228.969 216.613 209.772C206.213 196.267 206.037 181.096 206.037 181.096L194.915 180.14C194.915 180.14 192.338 208.669 186.77 221.908C181.203 235.147 167.126 262.841 167.126 262.841C167.126 262.841 173.06 292.334 175.795 296.066Z" fill="#69B99D"/>
<path d="M183.593 347.75C182.845 349.605 170.86 381.518 169.361 407.494C167.862 433.47 167.488 465.94 173.106 487.184H239.399C239.399 487.184 244.922 440.228 246.795 438.003C248.668 435.776 250.54 435.073 251.29 443.588C252.039 452.103 249.886 487.184 249.886 487.184H314.321C314.321 487.184 316.179 428.793 314.68 414.432C313.732 405.335 310.678 390.385 308.567 380.649C307.247 374.561 305.438 368.592 303.146 362.795L295.635 343.8L183.593 347.75Z" fill="#1A2E35"/>
<path d="M300.623 356.415C300.623 356.424 300.517 356.435 300.309 356.445C300.071 356.453 299.768 356.465 299.387 356.479C298.54 356.498 297.354 356.523 295.845 356.556C292.769 356.596 288.318 356.721 282.822 356.913C271.828 357.287 256.659 358.207 239.912 359.367C223.158 360.529 207.973 361.389 196.969 361.667C191.467 361.809 187.014 361.876 183.937 361.853C182.428 361.842 181.241 361.835 180.394 361.829C180.013 361.822 179.709 361.814 179.472 361.809C179.264 361.802 179.158 361.794 179.158 361.785C179.158 361.775 179.264 361.765 179.472 361.755C179.709 361.746 180.013 361.735 180.392 361.721C181.24 361.703 182.427 361.676 183.935 361.643C187.01 361.603 191.46 361.479 196.957 361.288C207.951 360.913 223.122 359.994 239.874 358.832C256.622 357.671 271.805 356.811 282.81 356.534C288.311 356.39 292.765 356.323 295.843 356.347C297.353 356.357 298.54 356.365 299.387 356.371C299.768 356.379 300.071 356.385 300.309 356.39C300.517 356.398 300.623 356.406 300.623 356.415Z" fill="#375A64"/>
<path d="M190.545 361.785C190.554 361.787 190.538 361.897 190.498 362.109C190.45 362.349 190.388 362.66 190.31 363.049C190.125 363.908 189.865 365.115 189.534 366.651C189.182 368.212 188.765 370.124 188.345 372.357C187.918 374.588 187.372 377.117 186.917 379.941C186.674 381.35 186.42 382.826 186.155 384.362C185.893 385.901 185.684 387.511 185.432 389.172C184.905 392.492 184.506 396.062 184.049 399.812C183.244 407.326 182.594 415.612 182.323 424.328C182.093 433.047 182.269 441.359 182.663 448.904C182.919 452.675 183.121 456.26 183.482 459.602C183.65 461.274 183.773 462.893 183.96 464.442C184.15 465.99 184.333 467.475 184.508 468.894C184.822 471.736 185.26 474.285 185.587 476.533C185.903 478.783 186.241 480.709 186.531 482.282C186.8 483.83 187.011 485.046 187.161 485.912C187.223 486.304 187.272 486.616 187.31 486.859C187.342 487.072 187.353 487.182 187.344 487.184C187.334 487.186 187.305 487.079 187.256 486.869C187.204 486.63 187.138 486.321 187.054 485.932C186.88 485.071 186.635 483.861 186.323 482.32C186.002 480.751 185.633 478.829 185.288 476.58C184.932 474.335 184.467 471.786 184.128 468.944C183.942 467.524 183.747 466.037 183.545 464.488C183.346 462.939 183.213 461.319 183.035 459.644C182.654 456.3 182.434 452.709 182.165 448.933C181.742 441.375 181.551 433.048 181.781 424.312C182.052 415.581 182.719 407.28 183.553 399.758C184.024 396.002 184.441 392.429 184.988 389.107C185.25 387.444 185.469 385.834 185.743 384.295C186.02 382.759 186.286 381.283 186.541 379.874C187.019 377.051 187.592 374.524 188.049 372.297C188.497 370.067 188.944 368.16 189.328 366.606C189.701 365.078 189.995 363.879 190.204 363.024C190.304 362.64 190.383 362.334 190.445 362.097C190.502 361.888 190.535 361.783 190.545 361.785Z" fill="white"/>
<path d="M184.807 362.434C184.816 362.436 184.801 362.545 184.761 362.757C184.713 362.997 184.652 363.305 184.575 363.692C184.392 364.548 184.134 365.748 183.806 367.276C183.458 368.829 183.043 370.731 182.633 372.954C182.216 375.174 181.674 377.69 181.237 380.501C181.001 381.904 180.754 383.373 180.497 384.902C180.24 386.434 180.046 388.037 179.803 389.691C179.297 392.996 178.923 396.549 178.496 400.283C177.749 407.762 177.176 416.01 176.989 424.681C176.845 433.358 177.101 441.623 177.561 449.126C177.845 452.874 178.082 456.439 178.462 459.761C178.641 461.423 178.774 463.032 178.972 464.571C179.171 466.109 179.36 467.587 179.542 468.998C179.872 471.823 180.317 474.358 180.65 476.592C180.974 478.829 181.316 480.744 181.605 482.308C181.873 483.849 182.084 485.058 182.235 485.918C182.297 486.309 182.347 486.619 182.386 486.86C182.416 487.073 182.427 487.182 182.418 487.184C182.41 487.186 182.379 487.08 182.331 486.871C182.279 486.632 182.212 486.325 182.128 485.94C181.953 485.082 181.709 483.879 181.397 482.347C181.076 480.787 180.704 478.875 180.351 476.64C179.99 474.408 179.517 471.874 179.163 469.049C178.97 467.637 178.768 466.16 178.557 464.62C178.347 463.081 178.204 461.47 178.016 459.806C177.615 456.481 177.36 452.912 177.063 449.158C176.575 441.644 176.303 433.364 176.447 424.671C176.636 415.984 177.225 407.721 178 400.232C178.441 396.492 178.832 392.935 179.358 389.628C179.611 387.973 179.816 386.369 180.085 384.837C180.354 383.307 180.613 381.839 180.859 380.435C181.322 377.626 181.891 375.111 182.337 372.894C182.776 370.674 183.221 368.777 183.6 367.231C183.971 365.711 184.262 364.518 184.469 363.668C184.568 363.285 184.647 362.98 184.707 362.744C184.764 362.537 184.797 362.432 184.807 362.434Z" fill="white"/>
<path d="M295.667 345.128C295.633 345.142 295.352 344.565 294.87 343.507C294.365 342.365 293.691 340.845 292.875 339C291.208 335.18 288.934 329.878 286.436 323.971L286.417 323.927L286.415 323.879C286.405 323.63 286.393 323.363 286.382 323.094C286.108 316.517 285.89 310.562 285.76 306.251C285.708 304.161 285.665 302.437 285.633 301.144C285.63 300.593 285.628 300.136 285.626 299.754C285.63 299.437 285.642 299.269 285.66 299.269C285.679 299.268 285.704 299.434 285.735 299.75C285.765 300.13 285.801 300.587 285.843 301.136C285.919 302.426 286.02 304.147 286.143 306.236C286.371 310.543 286.649 316.496 286.924 323.072C286.934 323.341 286.946 323.609 286.956 323.857L286.935 323.764C289.428 329.673 291.645 334.999 293.222 338.856C293.975 340.728 294.595 342.27 295.061 343.428C295.484 344.509 295.701 345.113 295.667 345.128Z" fill="#7C4236"/>
<path d="M283.687 249.938C283.657 250.083 279.284 249.353 273.92 248.306C268.552 247.259 264.227 246.293 264.256 246.146C264.285 246.001 268.657 246.733 274.024 247.779C279.389 248.826 283.716 249.793 283.687 249.938Z" fill="white"/>
<path d="M136.964 434.364C136.964 445.164 128.127 453.921 117.227 453.921C106.325 453.921 97.4884 445.164 97.4884 434.364C97.4884 423.563 106.325 414.808 117.227 414.808C128.127 414.808 136.964 423.563 136.964 434.364Z" fill="#FF735D"/>
<mask id="mask3_1212_199" style="mask-type:luminance" maskUnits="userSpaceOnUse" x="97" y="414" width="40" height="40">
<path d="M97.4884 414.808H136.964V453.92H97.4884V414.808Z" fill="white"/>
</mask>
<g mask="url(#mask3_1212_199)">
<g opacity="0.300003">
<path d="M136.964 434.364C136.964 445.164 128.127 453.921 117.227 453.921C106.325 453.921 97.4885 445.164 97.4885 434.364C97.4885 423.564 106.325 414.808 117.227 414.808C128.127 414.808 136.964 423.564 136.964 434.364Z" fill="black"/>
</g>
</g>
<path d="M143.25 434.364C143.25 445.164 134.413 453.921 123.513 453.921C112.612 453.921 103.775 445.164 103.775 434.364C103.775 423.563 112.612 414.808 123.513 414.808C134.413 414.808 143.25 423.563 143.25 434.364Z" fill="#FF735D"/>
<path d="M112.456 398.005C112.456 398.739 112.438 411.512 110.214 418.674C107.99 425.835 106.878 433.18 107.805 435.934C108.731 438.688 119.109 448.788 121.519 449.706C123.929 450.624 145.056 448.788 145.056 448.788L152.283 424.366C152.283 424.366 143.943 412.614 140.423 406.371C136.902 400.127 133.718 392.86 134.105 388.506C134.492 384.153 112.456 398.005 112.456 398.005Z" fill="#C17560"/>
<path d="M160.466 436.236C160.466 447.036 151.629 455.792 140.728 455.792C129.827 455.792 120.99 447.036 120.99 436.236C120.99 425.436 129.827 416.679 140.728 416.679C151.629 416.679 160.466 425.436 160.466 436.236Z" fill="#FF735D"/>
<path d="M183.967 180.378C178.127 181.119 172.475 183.043 167.54 186.223C159.499 191.408 149.781 201.363 146.303 220.01C139.98 253.913 136.632 283.764 132.913 291.503C129.194 299.241 121.383 313.983 120.639 329.46C119.896 344.938 112.457 398.005 112.457 398.005H131.798C131.798 398.005 149.651 343.095 156.346 325.407C163.041 307.718 161.3 307.284 165.763 290.7C170.227 274.117 179.518 242.223 179.518 242.223L190.668 208.542L194.184 180.141L183.967 180.378Z" fill="#C17560"/>
<path d="M180.53 209.303C180.596 209.28 181.041 210.232 181.633 211.823C182.22 213.414 182.938 215.656 183.466 218.197C183.992 220.74 184.224 223.081 184.316 224.773C184.405 226.467 184.374 227.516 184.305 227.519C184.224 227.522 184.12 226.48 183.934 224.805C183.745 223.13 183.455 220.819 182.936 218.305C182.414 215.793 181.762 213.557 181.27 211.942C180.774 210.33 180.456 209.331 180.53 209.303Z" fill="#7C4236"/>
<mask id="mask4_1212_199" style="mask-type:luminance" maskUnits="userSpaceOnUse" x="120" y="416" width="41" height="40">
<path d="M120.99 416.68H160.466V455.791H120.99V416.68Z" fill="white"/>
</mask>
<g mask="url(#mask4_1212_199)">
<g opacity="0.300003">
<path d="M160.466 436.236C160.466 447.036 151.629 455.792 140.728 455.792C129.827 455.792 120.99 447.036 120.99 436.236C120.99 425.436 129.827 416.679 140.728 416.679C151.629 416.679 160.466 425.436 160.466 436.236Z" fill="black"/>
</g>
</g>
<path d="M167.412 436.236C167.412 447.036 158.575 455.792 147.673 455.792C136.773 455.792 127.936 447.036 127.936 436.236C127.936 425.436 136.773 416.679 147.673 416.679C158.575 416.679 167.412 425.436 167.412 436.236Z" fill="#FF735D"/>
<path d="M148.345 438.257L147.432 438.32L147.538 439.775L146.272 439.865L146.167 438.411L143.146 438.625L143.069 437.547L145.394 432.964L146.755 432.868L144.607 437.208L146.112 437.102L146.019 435.805L147.244 435.718L147.338 437.014L148.251 436.949L148.345 438.257Z" fill="#1A2E35"/>
<path d="M150.796 437.446L150.248 438.22L150.346 439.575L149.097 439.664L148.566 432.321L149.815 432.233L150.115 436.389L151.788 434.122L153.277 434.017L151.646 436.4L153.823 439.328L152.309 439.436L150.796 437.446Z" fill="#1A2E35"/>
<path d="M164.205 436.236C164.115 436.244 164.226 434.774 163.585 432.262C163.287 431.004 162.682 429.519 161.738 427.949C160.786 426.384 159.418 424.752 157.559 423.368C155.707 421.997 153.374 420.833 150.684 420.366C148.011 419.916 144.997 420.001 142.128 421.085C140.684 421.583 139.292 422.335 138.012 423.284C137.351 423.735 136.774 424.298 136.169 424.84C135.621 425.441 135.046 426.028 134.575 426.71C132.574 429.348 131.447 432.739 131.414 436.233C131.446 439.729 132.573 443.121 134.574 445.76C135.045 446.441 135.62 447.029 136.167 447.63C136.773 448.172 137.35 448.735 138.011 449.186C139.291 450.136 140.684 450.888 142.128 451.386C144.997 452.47 148.012 452.555 150.685 452.105C153.375 451.637 155.708 450.474 157.56 449.102C159.419 447.719 160.786 446.086 161.739 444.522C162.682 442.951 163.287 441.466 163.586 440.209C164.225 437.697 164.115 436.227 164.205 436.236C164.214 436.236 164.219 436.325 164.219 436.501C164.215 436.708 164.211 436.966 164.206 437.282C164.206 437.628 164.187 438.052 164.103 438.55C164.035 439.049 163.971 439.628 163.79 440.259C163.518 441.541 162.936 443.06 161.999 444.676C161.055 446.284 159.679 447.969 157.793 449.404C155.913 450.827 153.528 452.042 150.767 452.542C148.025 453.025 144.921 452.954 141.958 451.85C140.467 451.343 139.027 450.573 137.704 449.598C137.02 449.134 136.421 448.556 135.796 447.997C135.229 447.379 134.636 446.774 134.147 446.071C132.075 443.351 130.903 439.844 130.873 436.233C130.904 432.624 132.076 429.117 134.148 426.398C134.637 425.696 135.23 425.091 135.797 424.473C136.422 423.915 137.021 423.336 137.705 422.873C139.027 421.897 140.467 421.128 141.958 420.621C144.921 419.518 148.023 419.446 150.766 419.928C153.527 420.429 155.912 421.644 157.792 423.066C159.678 424.501 161.054 426.187 161.998 427.795C162.935 429.41 163.518 430.93 163.79 432.211C163.971 432.842 164.035 433.422 164.103 433.921C164.187 434.418 164.206 434.843 164.206 435.189C164.211 435.505 164.215 435.763 164.219 435.97C164.219 436.146 164.214 436.236 164.205 436.236Z" fill="#1A2E35"/>
</g>
</svg>
